<?xml version="1.0" encoding="utf-8"?>
<!-- Generator: Adobe Illustrator 16.0.0, SVG Export Plug-In . SVG Version: 6.00 Build 0)  -->
<!DOCTYPE svg PUBLIC "-//W3C//DTD SVG 1.1//EN" "http://www.w3.org/Graphics/SVG/1.1/DTD/svg11.dtd">
<svg version="1.1" xmlns="http://www.w3.org/2000/svg" xmlns:xlink="http://www.w3.org/1999/xlink" x="0px" y="0px" width="800px"
	 height="800px" viewBox="0 0 800 800" enable-background="new 0 0 800 800" xml:space="preserve">
<g id="lecteur">
	<circle fill="#838182" cx="684.375" cy="185.469" r="85.997"/>
	<path fill="#121114" d="M559.792,522.072c-2.242-1.004-4.184-2.728-5.443-5.059c-3.039-5.626-0.942-12.651,4.686-15.693
		c21.804-11.809,83.333-53.007,80.094-86.266c-4.672-47.973-11.386-121.623-11.453-122.361c-0.183-1.981,0.151-3.974,0.966-5.789
		l14.579-32.515c2.615-5.836,9.469-8.445,15.305-5.829c5.837,2.617,8.446,9.469,5.829,15.306l-13.338,29.745
		c1.315,14.377,7.038,76.831,11.166,119.197c5.314,54.572-82.148,103.491-92.139,108.891
		C566.746,523.481,562.967,523.496,559.792,522.072z"/>
	<circle fill="#39373A" cx="684.375" cy="185.469" r="80.621"/>
	
		<rect x="673.942" y="136.577" transform="matrix(0.9125 0.4092 -0.4092 0.9125 136.6257 -264.3423)" fill="#717173" width="24.305" height="101.107"/>
	
		<rect x="646.544" y="230.341" transform="matrix(0.9125 0.4091 -0.4091 0.9125 159.2096 -247.7654)" fill="#CCCCCB" width="24.305" height="35.781"/>
	<circle fill="#CBCACB" cx="684.741" cy="184.653" r="34.447"/>
	<circle fill="#242225" cx="684.74" cy="184.653" r="27.32"/>
	<circle fill="#838182" cx="684.741" cy="184.652" r="18.707"/>
	<polygon fill="#525352" points="717.867,145.974 730.612,143.552 733.891,136.236 692.3,117.586 689.141,124.631 695.633,136.004 	
		"/>
	
		<rect x="699.477" y="81.659" transform="matrix(0.9125 0.4091 -0.4091 0.9125 106.7751 -286.1934)" fill="#CBCACB" width="45.582" height="49.59"/>
	<path fill="#2F3032" d="M746.088,214.764c-3.322,7.408-12.018,10.721-19.427,7.398c-7.406-3.321-10.721-12.018-7.398-19.426
		c3.323-7.408,12.021-10.719,19.426-7.399C746.1,198.66,749.409,207.356,746.088,214.764z"/>
	<circle fill="#717173" cx="732.676" cy="208.75" r="9.109"/>
	<polygon fill="#3C3A3F" points="549.942,533.636 538.206,514.655 557.797,502.534 569.536,521.519 	"/>
	
		<rect x="503.951" y="502.851" transform="matrix(0.5262 0.8504 -0.8504 0.5262 704.8239 -186.1299)" fill="#121114" width="30.959" height="73.077"/>
	
		<rect x="551.44" y="510.277" transform="matrix(0.5262 0.8504 -0.8504 0.5262 702.5894 -236.5889)" fill="#D3D3D3" width="24.31" height="3.776"/>
	
		<rect x="502.721" y="531.209" transform="matrix(0.5261 0.8504 -0.8504 0.5261 699.0562 -174.2683)" fill="#D3D3D3" width="6.361" height="17.859"/>
	
		<rect x="509.468" y="542.145" transform="matrix(0.5261 0.8504 -0.8504 0.5261 711.5537 -174.8237)" fill="#D3D3D3" width="6.361" height="17.859"/>
</g>
</svg>
